<svg t="1599015606115" class="icon" viewBox="0 0 1024 1024" version="1.1" xmlns="http://www.w3.org/2000/svg" p-id="6824" width="200" height="200"><path d="M354.6 134.7c-130 0-235.7 105.8-235.7 235.7 0 45.9 12.7 89.2 35.7 124.9 22.9-28 61.2-45.9 101.9-45.9 6.4 0 14 1.3 20.4 1.3-2.5-8.9-3.8-17.8-3.8-28 0-62.4 51-113.4 113.4-113.4 15.3 0 29.3 2.5 42.1 7.6 17.8-47.1 54.8-85.4 101.9-105.8-43.4-45.8-105.8-76.4-175.9-76.4z m0 0" fill="#E9EAEB" p-id="6825"></path><path d="M768.7 695.4H615.8v-25.5h152.9c65 0 112.1-51 112.1-119.8 0-62.4-42.1-113.4-101.9-124.9l-12.7-2.5 2.5-12.7c1.3-8.9 2.5-17.8 2.5-28 0-94.3-76.5-170.8-170.8-170.8-70.1 0-135.1 44.6-160.6 110.9l-5.1 12.7-12.7-5.1c-8.9-2.5-21.7-5.1-34.4-5.1-54.8 0-100.7 44.6-100.7 100.7 0 7.6 1.3 16.6 2.5 24.2l5.1 19.1-19.1-3.8c-6.4-1.3-12.7-1.3-17.8-1.3-65 0-113.4 43.3-113.4 100.7 0 58.6 49.7 105.8 112.1 105.8H464v25.5H256.5c-76.5 0-137.6-58.6-137.6-131.3 0-73.9 62.4-128.7 144-126.2 0-3.8-1.3-8.9-1.3-12.7 0-68.8 56.1-126.2 126.2-126.2 11.5 0 24.2 1.3 34.4 5.1 31.9-70.1 101.9-116 179.7-116 108.3 0 196.2 87.9 196.2 196.2 0 7.6 0 14-1.3 20.4 65 17.8 109.6 76.5 109.6 147.8-0.1 81.6-57.4 142.8-137.7 142.8z m0 0" fill="#2D2D2D" p-id="6826"></path><path d="M322.7 759.1h-53.5c-73.9 0-118.5-17.8-160.6-63.7l19.1-16.6c35.7 40.8 73.9 54.8 141.4 54.8h53.5v25.5z m474 0h-53.5v-25.5h53.5c38.2 0 80.3-24.2 94.3-56.1l22.9 10.2c-17.8 40.8-67.5 71.4-117.2 71.4z m0 0" fill="#BCC0C4" p-id="6827"></path><path d="M488.4 402.3h25.5v101.9h-25.5V402.3z m101.9 318.6h-25.5V536.1l101.9-62.4v-71.4h25.5v85.4l-101.9 62.4v170.8z m0 0" fill="#2D2D2D" p-id="6828"></path><path d="M659.1 395.9c-14-10.2-16.6-30.6-6.4-44.6 10.2-14 30.6-16.6 44.6-6.4 14 10.2 16.6 30.6 6.4 44.6-10.2 14.1-30.6 16.6-44.6 6.4z m0 0" fill="#A3D4FF" p-id="6829"></path><path d="M678.2 415.1c-8.9 0-19.1-2.5-26.8-8.9-19.1-14-24.2-42.1-8.9-62.4 14-19.1 42.1-24.2 62.4-8.9 8.9 7.6 15.3 17.8 17.8 29.3 1.3 11.5-1.3 22.9-7.6 33.1-7.6 8.9-17.8 15.3-29.3 17.8h-7.6z m-11.4-29.4c3.8 2.5 8.9 3.8 14 3.8 5.1-1.3 8.9-3.8 12.7-7.6 2.5-3.8 3.8-8.9 3.8-14-1.3-5.1-3.8-8.9-7.6-12.7-8.9-6.4-20.4-3.8-26.8 3.8-6.3 8.9-5.1 20.4 3.9 26.7z m0 0" fill="#2D2D2D" p-id="6830"></path><path d="M567.4 471.1c-14-10.2-16.6-30.6-6.4-44.6 10.2-14 30.6-16.6 44.6-6.4 14 10.2 16.6 30.6 6.4 44.6-11.5 14.1-30.6 16.6-44.6 6.4z m0 0" fill="#A3D4FF" p-id="6831"></path><path d="M586.5 490.2c-8.9 0-19.1-2.5-26.8-8.9-8.9-7.6-15.3-17.8-17.8-29.3-1.3-11.5 1.3-22.9 7.6-33.1 14-19.1 42.1-24.2 62.4-8.9 8.9 7.6 15.3 17.8 17.8 29.3 1.3 11.5-1.3 22.9-7.6 33.1-7.6 8.9-17.8 15.3-29.3 17.8h-6.3z m0-63.7c-6.4 0-11.5 2.5-15.3 7.6-2.5 3.8-3.8 8.9-3.8 14s3.8 8.9 7.6 12.7c3.8 2.5 8.9 3.8 14 3.8 5.1-1.3 8.9-3.8 12.7-7.6 2.5-3.8 3.8-8.9 3.8-14-1.3-5.1-3.8-8.9-7.6-12.7-3.8-2.5-7.6-3.8-11.4-3.8z m0 0" fill="#2D2D2D" p-id="6832"></path><path d="M482 559.1c-14-10.2-16.6-30.6-6.4-44.6 10.2-14 30.6-16.6 44.6-6.4 14 10.2 16.6 30.6 6.4 44.6-11.5 14-30.6 16.5-44.6 6.4z m0 0" fill="#A3D4FF" p-id="6833"></path><path d="M501.1 578.2c-8.9 0-19.1-2.5-26.8-8.9-8.9-7.6-15.3-17.8-17.8-29.3-1.3-11.5 1.3-22.9 7.6-33.1 14-19.1 42.1-24.2 62.4-8.9 8.9 7.6 15.3 17.8 17.8 29.3 1.3 11.5-1.3 22.9-7.6 33.1-7.6 8.9-17.8 15.3-29.3 17.8h-6.3z m0-63.8c-6.4 0-11.5 2.5-15.3 7.6-2.5 3.8-3.8 8.9-3.8 14s3.8 8.9 7.6 12.7c3.8 2.5 8.9 3.8 14 3.8 5.1-1.3 8.9-3.8 12.7-7.6 2.5-3.8 3.8-8.9 3.8-14-1.3-5.1-3.8-8.9-7.6-12.7-3.7-2.5-7.6-3.8-11.4-3.8z m0 0" fill="#2D2D2D" p-id="6834"></path><path d="M513.9 771.9h-25.5V638.1l-101.9-73.9v-85.4H412v71.4l101.9 75.2v146.5z m0 0" fill="#2D2D2D" p-id="6835"></path><path d="M413.2 471.1c14-10.2 16.6-30.6 6.4-44.6-10.2-14-30.6-16.6-44.6-6.4-14 10.2-16.6 30.6-6.4 44.6 11.5 14.1 30.6 16.6 44.6 6.4z m0 0" fill="#A3D4FF" p-id="6836"></path><path d="M395.3 490.2c-14 0-26.8-6.4-35.7-17.8-7.6-8.9-10.2-21.7-7.6-33.1 1.3-11.5 7.6-21.7 17.8-29.3 8.9-7.6 21.7-10.2 33.1-7.6 11.5 1.3 21.7 7.6 29.3 17.8 7.6 8.9 10.2 21.7 7.6 33.1-1.3 11.5-7.6 21.7-17.8 29.3-8.8 5.1-17.7 7.6-26.7 7.6z m-1.2-63.7c-3.8 0-7.6 1.3-11.5 3.8-3.8 2.5-6.4 7.6-7.6 12.7-1.3 5.1 0 10.2 3.8 14 6.4 8.9 17.8 10.2 26.8 3.8 3.8-2.5 6.4-7.6 7.6-12.7 1.3-5.1 0-10.2-3.8-14-2.5-3.8-7.6-6.4-12.7-7.6h-2.6z m0 0" fill="#2D2D2D" p-id="6837"></path><path d="M482 395.9c-14-10.2-16.6-30.6-6.4-44.6 10.2-14 30.6-16.6 44.6-6.4 14 10.2 16.6 30.6 6.4 44.6-11.5 14.1-30.6 16.6-44.6 6.4z m0 0" fill="#A3D4FF" p-id="6838"></path><path d="M499.8 415.1c-8.9 0-19.1-2.5-26.8-8.9-19.1-14-24.2-42.1-8.9-62.4 7.6-8.9 17.8-15.3 29.3-17.8 11.5-1.3 22.9 1.3 33.1 7.6 8.9 7.6 15.3 17.8 17.8 29.3s-1.3 22.9-7.6 33.1c-7.6 8.9-17.8 15.3-29.3 17.8-2.5 1.3-5 1.3-7.6 1.3z m1.3-63.8h-2.5c-5.1 1.3-8.9 3.8-12.7 7.6-6.4 8.9-3.8 20.4 3.8 26.8 3.8 2.5 8.9 3.8 14 3.8 5.1-1.3 8.9-3.8 12.7-7.6 2.5-3.8 3.8-8.9 3.8-14-1.3-5.1-3.8-8.9-7.6-12.7-3.8-2.6-7.7-3.9-11.5-3.9z m257.4 293.1h-65v-25.5h65c39.5 0 75.2-37 75.2-76.5h25.5c-1.3 54.9-47.2 102-100.7 102z m-397.6 0H255.2c-40.8 0-85.4-31.9-85.4-76.5h25.5c0 29.3 31.9 51 59.9 51H361v25.5z m203.9 102h25.5v25.5h-25.5v-25.5z m0 50.9h25.5v25.5h-25.5v-25.5z m-76.4 0h25.5v25.5h-25.5v-25.5z m0 51h25.5v25.5h-25.5v-25.5z m0 0" fill="#2D2D2D" p-id="6839"></path></svg>